name C:/MyDriveSym/Projects/mobilecap/Data\Session20210825_0001\mocap\ForceDataProcessed\DJ2_forces.mot
datacolumns 28
datarows 8
range 2.18200000 2.18550000
endheader 
time	R_ground_force_vx	R_ground_force_vy	R_ground_force_vz	R_ground_force_px	R_ground_force_py	R_ground_force_pz	R_ground_torque_x	R_ground_torque_y	R_ground_torque_z	L_ground_force_vx	L_ground_force_vy	L_ground_force_vz	L_ground_force_px	L_ground_force_py	L_ground_force_pz	L_ground_torque_x	L_ground_torque_y	L_ground_torque_z	3_ground_force_vx	3_ground_force_vy	3_ground_force_vz	3_ground_force_px	3_ground_force_py	3_ground_force_pz	3_ground_torque_x	3_ground_torque_y	3_ground_torque_z	
          2.18200000	        -47.11810100	        533.78652800	        -70.17000600	         -0.11360300	          0.00600000	         -0.38640200	          0.00000000	         -2.98329600	          0.00000000	        -21.91828000	        392.47904000	         52.69485500	         -0.10483100	          0.00600000	         -0.71117200	          0.00000000	          4.50685300	          0.00000000	          0.00000000	          0.00000000	          0.00000000	          0.00000000	          0.00000000	          0.00000000	          0.00000000	          0.00000000	          0.00000000	
          2.18250000	        -47.70012600	        534.80822900	        -70.30341600	         -0.11327500	          0.00600000	         -0.38631500	          0.00000000	         -2.98947800	          0.00000000	        -22.79146500	        394.11145500	         53.05995300	         -0.10443900	          0.00600000	         -0.71123600	          0.00000000	          4.49853600	          0.00000000	          0.00000000	          0.00000000	          0.00000000	          0.00000000	          0.00000000	          0.00000000	          0.00000000	          0.00000000	          0.00000000	
          2.18300000	        -48.27513300	        535.83228300	        -70.43656900	         -0.11295200	          0.00600000	         -0.38622900	          0.00000000	         -2.99550000	          0.00000000	        -23.67129100	        395.76668600	         53.43074500	         -0.10405300	          0.00600000	         -0.71130100	          0.00000000	          4.48978100	          0.00000000	          0.00000000	          0.00000000	          0.00000000	          0.00000000	          0.00000000	          0.00000000	          0.00000000	          0.00000000	          0.00000000	
          2.18350000	        -48.84341000	        536.85803500	        -70.56986300	         -0.11263300	          0.00600000	         -0.38614200	          0.00000000	         -3.00133800	          0.00000000	        -24.55743600	        397.44458600	         53.80729700	         -0.10367200	          0.00600000	         -0.71136800	          0.00000000	          4.48059000	          0.00000000	          0.00000000	          0.00000000	          0.00000000	          0.00000000	          0.00000000	          0.00000000	          0.00000000	          0.00000000	          0.00000000	
          2.18400000	        -49.40526700	        537.88484200	        -70.70370500	         -0.11231900	          0.00600000	         -0.38605600	          0.00000000	         -3.00696700	          0.00000000	        -25.44948800	        399.14494500	         54.18966000	         -0.10329700	          0.00600000	         -0.71143700	          0.00000000	          4.47097100	          0.00000000	          0.00000000	          0.00000000	          0.00000000	          0.00000000	          0.00000000	          0.00000000	          0.00000000	          0.00000000	          0.00000000	
          2.18450000	        -49.96103600	        538.91206900	        -70.83850200	         -0.11200800	          0.00600000	         -0.38597000	          0.00000000	         -3.01236300	          0.00000000	        -26.34694700	        400.86748800	         54.57787400	         -0.10292700	          0.00600000	         -0.71150600	          0.00000000	          4.46093900	          0.00000000	          0.00000000	          0.00000000	          0.00000000	          0.00000000	          0.00000000	          0.00000000	          0.00000000	          0.00000000	          0.00000000	
          2.18500000	        -50.51107600	        539.93908200	        -70.97465900	         -0.11170200	          0.00600000	         -0.38588500	          0.00000000	         -3.01750100	          0.00000000	        -27.24921900	        402.61189400	         54.97197700	         -0.10256400	          0.00600000	         -0.71157800	          0.00000000	          4.45051500	          0.00000000	          0.00000000	          0.00000000	          0.00000000	          0.00000000	          0.00000000	          0.00000000	          0.00000000	          0.00000000	          0.00000000	
          2.18550000	        -51.05577300	        540.96526400	        -71.11256900	         -0.11140000	          0.00600000	         -0.38579900	          0.00000000	         -3.02236000	          0.00000000	        -28.15563700	        404.37779500	         55.37201000	         -0.10220600	          0.00600000	         -0.71165100	          0.00000000	          4.43972100	          0.00000000	          0.00000000	          0.00000000	          0.00000000	          0.00000000	          0.00000000	          0.00000000	          0.00000000	          0.00000000	          0.00000000	
